<?xml version="1.0" encoding="utf-8"?>
<!-- Generator: Adobe Illustrator 16.0.0, SVG Export Plug-In . SVG Version: 6.00 Build 0)  -->
<!DOCTYPE svg PUBLIC "-//W3C//DTD SVG 1.1//EN" "http://www.w3.org/Graphics/SVG/1.1/DTD/svg11.dtd">
<svg version="1.1" id="Layer_1" xmlns="http://www.w3.org/2000/svg" xmlns:xlink="http://www.w3.org/1999/xlink" x="0px" y="0px"
	 width="32px" height="32px" viewBox="588 495.5 32 32" enable-background="new 588 495.5 32 32" xml:space="preserve">
<g>
	<path fill="#A7A7A7" d="M619.608,525.228l-7.693-7.693c1.907-2.325,3.057-5.303,3.057-8.548c0-7.445-6.041-13.486-13.486-13.486
		c-7.452,0-13.486,6.041-13.486,13.486s6.034,13.486,13.486,13.486c3.246,0,6.217-1.144,8.542-3.05l7.693,7.687
		c0.522,0.522,1.365,0.522,1.888,0C620.131,526.592,620.131,525.743,619.608,525.228z M601.486,519.787
		c-5.962,0-10.808-4.846-10.808-10.801c0-5.956,4.846-10.808,10.808-10.808c5.956,0,10.808,4.852,10.808,10.808
		C612.294,514.942,607.441,519.787,601.486,519.787z"/>
</g>
</svg>
