<?xml version="1.0" encoding="utf-8"?>
<!-- Generator: Adobe Illustrator 16.0.0, SVG Export Plug-In . SVG Version: 6.00 Build 0)  -->
<!DOCTYPE svg PUBLIC "-//W3C//DTD SVG 1.1//EN" "http://www.w3.org/Graphics/SVG/1.1/DTD/svg11.dtd">
<svg version="1.1" id="Capa_1" xmlns="http://www.w3.org/2000/svg" xmlns:xlink="http://www.w3.org/1999/xlink" x="0px" y="0px"
	 width="20px" height="20px" viewBox="594 501.5 20 20" enable-background="new 594 501.5 20 20" xml:space="preserve">
<g>
	<g>
		<g>
			<path fill="#222222" d="M604,521.5c-5.514,0-10-4.486-10-10s4.486-10,10-10c5.515,0,10,4.486,10,10S609.515,521.5,604,521.5z
				 M604,502.317c-5.063,0-9.184,4.12-9.184,9.184c0,5.064,4.12,9.184,9.184,9.184s9.184-4.119,9.184-9.184
				C613.184,506.436,609.063,502.317,604,502.317z"/>
		</g>
		<path fill="#222222" d="M609.785,511.092h-5.377v-5.377c0-0.226-0.183-0.408-0.408-0.408s-0.408,0.183-0.408,0.408v5.377h-5.377
			c-0.226,0-0.408,0.183-0.408,0.408s0.183,0.408,0.408,0.408h5.377v5.377c0,0.225,0.183,0.408,0.408,0.408s0.408-0.184,0.408-0.408
			v-5.377h5.377c0.226,0,0.408-0.183,0.408-0.408S610.011,511.092,609.785,511.092z"/>
	</g>
</g>
</svg>
