<?xml version="1.0" encoding="utf-8"?>
<!-- Generator: Adobe Illustrator 16.0.0, SVG Export Plug-In . SVG Version: 6.00 Build 0)  -->
<!DOCTYPE svg PUBLIC "-//W3C//DTD SVG 1.1//EN" "http://www.w3.org/Graphics/SVG/1.1/DTD/svg11.dtd">
<svg version="1.1" id="Capa_1" xmlns="http://www.w3.org/2000/svg" xmlns:xlink="http://www.w3.org/1999/xlink" x="0px" y="0px"
	 width="16px" height="33.032px" viewBox="596 494.984 16 33.032" enable-background="new 596 494.984 16 33.032"
	 xml:space="preserve">
<g>
	<g>
		<path fill="#FFFFFF" d="M602.709,496.274V523.6l-4.505-4.526c-0.503-0.505-1.32-0.507-1.825-0.005
			c-0.505,0.503-0.507,1.32-0.004,1.825l6.709,6.742c0,0.001,0.001,0.001,0.001,0.001c0.502,0.504,1.322,0.506,1.827,0
			c0,0,0.001,0,0.001-0.001l6.71-6.742c0.503-0.505,0.501-1.321-0.005-1.824c-0.505-0.503-1.321-0.501-1.824,0.004l-4.505,4.526
			v-27.326c0-0.712-0.578-1.29-1.291-1.29S602.709,495.561,602.709,496.274z"/>
	</g>
</g>
</svg>
