<?xml version="1.0" encoding="utf-8"?>
<!-- Generator: Adobe Illustrator 16.0.0, SVG Export Plug-In . SVG Version: 6.00 Build 0)  -->
<!DOCTYPE svg PUBLIC "-//W3C//DTD SVG 1.1//EN" "http://www.w3.org/Graphics/SVG/1.1/DTD/svg11.dtd">
<svg version="1.1" id="Layer_1" xmlns="http://www.w3.org/2000/svg" xmlns:xlink="http://www.w3.org/1999/xlink" x="0px" y="0px"
	 width="216px" height="216px" viewBox="-351.142 98.798 216 216" enable-background="new -351.142 98.798 216 216"
	 xml:space="preserve">
<g>
	<path fill="#231F20" d="M-534.482,200.092c-24.44,0-44.324-19.883-44.324-44.323c0-24.44,19.884-44.324,44.324-44.324
		c24.44,0,44.323,19.883,44.323,44.324C-490.159,180.208-510.042,200.092-534.482,200.092z M-534.482,118.445
		c-20.581,0-37.324,16.743-37.324,37.324c0,20.58,16.744,37.323,37.324,37.323c20.58,0,37.323-16.743,37.323-37.323
		C-497.159,135.188-513.902,118.445-534.482,118.445z"/>
</g>
<g>
	<path fill="#231F20" d="M-456.891,302.151c-0.006,0-0.013-0.001-0.02,0h-155.13c-1.933,0-3.5-1.567-3.5-3.5
		c0-44.699,36.366-81.065,81.065-81.065c44.571,0,80.856,36.157,81.063,80.68c0.014,0.126,0.021,0.255,0.021,0.385
		C-453.391,300.584-454.958,302.151-456.891,302.151z M-608.459,295.151h147.967c-1.835-39.22-34.318-70.565-73.983-70.565
		C-574.141,224.586-606.624,255.931-608.459,295.151z"/>
</g>
<g>
	<path fill="#231F20" d="M-243.149,200.092c-24.44,0-44.324-19.883-44.324-44.323c0-24.44,19.884-44.324,44.324-44.324
		c24.44,0,44.323,19.883,44.323,44.324C-198.825,180.208-218.709,200.092-243.149,200.092z M-243.149,118.445
		c-20.581,0-37.324,16.743-37.324,37.324c0,20.58,16.744,37.323,37.324,37.323c20.58,0,37.323-16.743,37.323-37.323
		C-205.825,135.188-222.569,118.445-243.149,118.445z"/>
</g>
<g>
	<path fill="#231F20" d="M-165.557,302.151c-0.006,0-0.013-0.001-0.02,0h-155.13c-1.933,0-3.5-1.567-3.5-3.5
		c0-44.699,36.366-81.065,81.065-81.065c44.571,0,80.856,36.157,81.063,80.68c0.014,0.126,0.021,0.255,0.021,0.385
		C-162.057,300.584-163.624,302.151-165.557,302.151z M-317.126,295.151h147.967c-1.835-39.22-34.318-70.565-73.983-70.565
		C-282.808,224.586-315.291,255.931-317.126,295.151z"/>
</g>
</svg>
